<svg xmlns="http://www.w3.org/2000/svg" viewBox="0 0 159.81018 150.59206" fill="none">
<g transform="translate(-24.94136,-37.029749)" fill="#1A4BFF">
<path d="m 136.48649,168.39864 c -0.10743,1.32016 0.33593,2.64285 2.07215,2.96704 6.52582,1.21854 16.10488,-0.69003 23.73133,-8.39151 5.41818,-5.47148 7.68282,-13.68572 7.37174,-21.83477 23.0685,-14.33724 15.63322,-40.68808 4.41635,-49.737907 3.1121,-13.172617 -0.53064,-30.085745 -23.18587,-34.724913 -4.52592,-14.494443 -16.15178,-20.573154 -27.43393,-19.533435 -6.51797,0.600671 -13.07442,5.438073 -13.87087,14.033396 -0.67824,7.319569 4.46277,12.250814 7.69938,17.009652 3.6288,5.335467 7.68886,11.596375 7.69089,18.215326 0.003,9.1967 -1.65669,12.501982 -9.18807,20.711301 -8.3323,9.08234 -23.666634,19.84306 -31.51078,29.05818 -5.173936,6.07822 -13.67756,21.98712 1.581826,39.37918 l 11.667243,11.0409 c 2.675471,2.05528 3.693711,0.93318 4.243511,-2.44418 0.37469,-2.30173 -0.48992,-4.47334 -1.923709,-6.12447 -6.986096,-6.53909 -14.817183,-13.10819 -14.832813,-23.44994 0.433599,-6.62356 2.269967,-12.44339 10.05269,-19.16864 18.207752,-15.73378 39.335352,-28.33631 37.791172,-50.020952 -0.89279,-11.086412 -7.43049,-19.29201 -12.95402,-27.516927 -3.73804,-5.566208 -3.27639,-9.482852 3.0338,-12.0536 7.5437,-3.07328 19.37939,3.890697 21.33589,17.18791 0.54874,1.079267 1.28918,2.014763 2.52864,2.575987 11.99782,-1.363566 24.47259,9.25156 18.44728,26.696349 -0.76606,1.420777 -0.45086,2.625299 0.5155,3.699591 13.56581,8.279152 15.79286,30.153772 -2.44592,39.693332 -1.32233,0.59901 -1.95017,1.76623 -1.92308,3.46931 1.59075,12.20073 -4.06229,23.85357 -20.77892,23.81422 -1.30759,-0.003 -2.30493,0.19565 -2.65275,1.51422 z"></path>
<path d="m 73.206414,168.39864 c 0.10743,1.32016 -0.33593,2.64285 -2.07215,2.96704 -6.52582,1.21854 -16.10488,-0.69003 -23.73133,-8.39151 -5.41818,-5.47148 -7.68282,-13.68572 -7.37174,-21.83477 -23.0685,-14.33724 -15.63322,-40.68808 -4.41635,-49.737907 -3.1121,-13.172617 0.53064,-30.085745 23.18587,-34.724913 4.52592,-14.494443 16.15178,-20.573154 27.43393,-19.533435 6.51797,0.600671 13.818626,4.92334 14.514916,13.527355 0.54023,6.675517 -2.287512,9.807337 -4.939151,13.835396 -1.536878,2.334644 -6.114866,9.048777 -6.114866,9.048777 l 24.660797,0.08479 c 1.69713,0.0058 2.45873,1.079484 3.55271,4.128708 0.46403,1.293377 -0.84756,2.025609 -3.35681,2.021669 l -27.892072,-0.0438 c 0,0 -1.553374,4.549377 -1.55457,8.216894 0,0 27.236822,-0.276831 33.318022,-0.256185 2.99699,0.01017 3.09575,6.168982 -0.6694,6.337 -5.06931,0.226216 -31.312253,0.07949 -31.312253,0.07949 -0.713674,0.984429 3.52465,7.894441 4.356518,8.013281 l 19.174425,-0.0332 c 4.63581,-0.008 -0.31794,5.29609 -2.24735,6.15091 l -12.065431,0.14939 4.601801,4.20966 c 0.77056,0.7049 1.4259,1.5003 0.33389,2.38478 l -3.720403,3.01336 c -0.913375,0.7398 -1.838265,0.18825 -2.731121,-0.48112 0,0 -8.722209,-7.68166 -12.835717,-15.13649 -2.324776,-4.213147 -4.391505,-7.714175 -4.106375,-17.010873 0.340961,-11.117075 7.06246,-19.29201 12.58599,-27.516927 3.73804,-5.566208 3.552412,-9.620863 -3.0338,-12.0536 -7.641113,-2.822384 -19.37939,3.890697 -21.33589,17.18791 -0.54874,1.079267 -1.28918,2.014763 -2.52864,2.575987 -11.99782,-1.363566 -24.47259,9.25156 -18.44728,26.696349 0.76606,1.420777 0.45086,2.625299 -0.5155,3.699591 -13.56581,8.279153 -15.79286,30.153773 2.44592,39.693333 1.32233,0.59901 1.95017,1.76623 1.92308,3.46931 -1.59075,12.20073 4.06229,23.85357 20.77892,23.81422 1.30759,-0.003 2.30493,0.19565 2.65275,1.51422 z"></path>
<path d="m 115.97537,126.09619 c 5.58723,5.54569 17.28275,15.85869 16.32451,29.71811 -0.61748,8.93089 -4.07986,14.38003 -8.27667,19.25896 -3.4548,4.01631 -7.96388,7.99487 -11.49812,11.14979 -1.70486,1.52188 -3.27623,1.44962 -4.10538,0.35401 -0.87996,-1.16277 -0.64095,-3.82646 -0.59014,-4.93151 0.0446,-0.96935 0.82394,-2.861 1.75128,-3.74918 6.50442,-6.22972 13.62188,-12.28678 14.58318,-20.14962 l -33.536707,-0.23002 c -2.212647,-0.90474 -2.140038,-5.21376 0.230018,-6.1645 l 33.490709,0.046 c -0.34196,-3.21817 -1.87081,-5.89685 -3.54229,-8.51069 l -23.841426,-0.1035 c -1.008788,-0.0442 -1.821857,-1.62231 -0.862568,-2.56471 l 4.094334,-3.58829 15.50325,0.092 -6.34851,-6.44052 c -0.60207,-0.62798 -0.38319,-1.15744 0.092,-1.65614 l 3.98885,-3.15241 c 0.73056,-0.48026 1.78696,-0.16022 2.54368,0.62222 z"></path>
</g>
</svg>